<?xml version="1.0" encoding="UTF-8" standalone="no"?><svg xmlns="http://www.w3.org/2000/svg" xmlns:xlink="http://www.w3.org/1999/xlink" contentScriptType="application/ecmascript" contentStyleType="text/css" height="578px" preserveAspectRatio="none" style="width:1460px;height:578px;" version="1.1" viewBox="0 0 1460 578" width="1460px" zoomAndPan="magnify"><defs><filter height="300%" id="f1x6ds8l2ofqm" width="300%" x="-1" y="-1"><feGaussianBlur result="blurOut" stdDeviation="2.0"/><feColorMatrix in="blurOut" result="blurOut2" type="matrix" values="0 0 0 0 0 0 0 0 0 0 0 0 0 0 0 0 0 0 .4 0"/><feOffset dx="4.0" dy="4.0" in="blurOut2" result="blurOut3"/><feBlend in="SourceGraphic" in2="blurOut3" mode="normal"/></filter></defs><g><!--cluster front--><polygon fill="#FFFFFF" filter="url(#f1x6ds8l2ofqm)" points="298,173,340,173,347,195.4883,845,195.4883,845,438.5,298,438.5,298,173" style="stroke: #000000; stroke-width: 1.5;"/><line style="stroke: #000000; stroke-width: 1.5;" x1="298" x2="347" y1="195.4883" y2="195.4883"/><text fill="#000000" font-family="sans-serif" font-size="14" font-weight="bold" lengthAdjust="spacingAndGlyphs" textLength="36" x="302" y="188.5352">front</text><!--cluster back--><polygon fill="#FFFFFF" filter="url(#f1x6ds8l2ofqm)" points="22,320,61,320,68,342.4883,274,342.4883,274,566,22,566,22,320" style="stroke: #000000; stroke-width: 1.5;"/><line style="stroke: #000000; stroke-width: 1.5;" x1="22" x2="68" y1="342.4883" y2="342.4883"/><text fill="#000000" font-family="sans-serif" font-size="14" font-weight="bold" lengthAdjust="spacingAndGlyphs" textLength="33" x="26" y="335.5352">back</text><!--cluster plotting--><polygon fill="#FFFFFF" filter="url(#f1x6ds8l2ofqm)" points="869,192.5,933,192.5,940,214.9883,1438,214.9883,1438,559.5,869,559.5,869,192.5" style="stroke: #000000; stroke-width: 1.5;"/><line style="stroke: #000000; stroke-width: 1.5;" x1="869" x2="940" y1="214.9883" y2="214.9883"/><text fill="#000000" font-family="sans-serif" font-size="14" font-weight="bold" lengthAdjust="spacingAndGlyphs" textLength="58" x="873" y="208.0352">plotting</text><!--cluster simulation--><polygon fill="#FFFFFF" filter="url(#f1x6ds8l2ofqm)" points="594,24,678,24,685,46.4883,712,46.4883,712,149,594,149,594,24" style="stroke: #000000; stroke-width: 1.5;"/><line style="stroke: #000000; stroke-width: 1.5;" x1="594" x2="685" y1="46.4883" y2="46.4883"/><text fill="#000000" font-family="sans-serif" font-size="14" font-weight="bold" lengthAdjust="spacingAndGlyphs" textLength="78" x="598" y="39.5352">simulation</text><!--class front.Window--><rect fill="#FEFECE" filter="url(#f1x6ds8l2ofqm)" height="86.8652" id="front.Window" style="stroke: #A80036; stroke-width: 1.5;" width="120" x="593" y="208"/><ellipse cx="627.8" cy="224" fill="#ADD1B2" rx="11" ry="11" style="stroke: #A80036; stroke-width: 1.0;"/><path d="M630.2731,230.1431 Q629.6921,230.4419 629.0529,230.5913 Q628.4138,230.7407 627.7082,230.7407 Q625.2014,230.7407 623.8815,229.0889 Q622.5617,227.437 622.5617,224.3159 Q622.5617,221.1865 623.8815,219.5347 Q625.2014,217.8828 627.7082,217.8828 Q628.4138,217.8828 629.0612,218.0322 Q629.7087,218.1816 630.2731,218.4805 L630.2731,221.2031 Q629.6423,220.6221 629.0488,220.3523 Q628.4553,220.0825 627.8244,220.0825 Q626.4797,220.0825 625.7949,221.1492 Q625.1101,222.2158 625.1101,224.3159 Q625.1101,226.4077 625.7949,227.4744 Q626.4797,228.541 627.8244,228.541 Q628.4553,228.541 629.0488,228.2712 Q629.6423,228.0015 630.2731,227.4204 Z "/><text fill="#000000" font-family="sans-serif" font-size="12" lengthAdjust="spacingAndGlyphs" textLength="44" x="646.2" y="228.5352">Window</text><line style="stroke: #A80036; stroke-width: 1.5;" x1="594" x2="712" y1="240" y2="240"/><line style="stroke: #A80036; stroke-width: 1.5;" x1="594" x2="712" y1="248" y2="248"/><ellipse cx="604" cy="259" fill="#84BE84" rx="3" ry="3" style="stroke: #038048; stroke-width: 1.0;"/><text fill="#000000" font-family="sans-serif" font-size="11" lengthAdjust="spacingAndGlyphs" textLength="94" x="613" y="262.6348">startExperiment()</text><ellipse cx="604" cy="271.9551" fill="#84BE84" rx="3" ry="3" style="stroke: #038048; stroke-width: 1.0;"/><text fill="#000000" font-family="sans-serif" font-size="11" lengthAdjust="spacingAndGlyphs" textLength="89" x="613" y="275.5898">startSimulation()</text><ellipse cx="604" cy="284.9102" fill="#84BE84" rx="3" ry="3" style="stroke: #038048; stroke-width: 1.0;"/><text fill="#000000" font-family="sans-serif" font-size="11" lengthAdjust="spacingAndGlyphs" textLength="74" x="613" y="288.5449">startPlotting()</text><!--class front.TraceTuner--><rect fill="#FEFECE" filter="url(#f1x6ds8l2ofqm)" height="60.9551" id="front.TraceTuner" style="stroke: #A80036; stroke-width: 1.5;" width="103" x="601.5" y="361.5"/><ellipse cx="618.3" cy="377.5" fill="#ADD1B2" rx="11" ry="11" style="stroke: #A80036; stroke-width: 1.0;"/><path d="M620.7731,383.6431 Q620.1921,383.9419 619.5529,384.0913 Q618.9138,384.2407 618.2082,384.2407 Q615.7014,384.2407 614.3815,382.5889 Q613.0617,380.937 613.0617,377.8159 Q613.0617,374.6865 614.3815,373.0347 Q615.7014,371.3828 618.2082,371.3828 Q618.9138,371.3828 619.5612,371.5322 Q620.2087,371.6816 620.7731,371.9805 L620.7731,374.7031 Q620.1423,374.1221 619.5488,373.8523 Q618.9553,373.5825 618.3244,373.5825 Q616.9797,373.5825 616.2949,374.6492 Q615.6101,375.7158 615.6101,377.8159 Q615.6101,379.9077 616.2949,380.9744 Q616.9797,382.041 618.3244,382.041 Q618.9553,382.041 619.5488,381.7712 Q620.1423,381.5015 620.7731,380.9204 Z "/><text fill="#000000" font-family="sans-serif" font-size="12" lengthAdjust="spacingAndGlyphs" textLength="67" x="632.7" y="382.0352">TraceTuner</text><line style="stroke: #A80036; stroke-width: 1.5;" x1="602.5" x2="703.5" y1="393.5" y2="393.5"/><line style="stroke: #A80036; stroke-width: 1.5;" x1="602.5" x2="703.5" y1="401.5" y2="401.5"/><ellipse cx="612.5" cy="412.5" fill="#84BE84" rx="3" ry="3" style="stroke: #038048; stroke-width: 1.0;"/><text fill="#000000" font-family="sans-serif" font-size="11" lengthAdjust="spacingAndGlyphs" textLength="77" x="621.5" y="416.1348">chooseTrace()</text><!--class front.CCTuner--><rect fill="#FEFECE" filter="url(#f1x6ds8l2ofqm)" height="60.9551" id="front.CCTuner" style="stroke: #A80036; stroke-width: 1.5;" width="89" x="739.5" y="361.5"/><ellipse cx="757.65" cy="377.5" fill="#ADD1B2" rx="11" ry="11" style="stroke: #A80036; stroke-width: 1.0;"/><path d="M760.1231,383.6431 Q759.5421,383.9419 758.9029,384.0913 Q758.2638,384.2407 757.5582,384.2407 Q755.0514,384.2407 753.7315,382.5889 Q752.4117,380.937 752.4117,377.8159 Q752.4117,374.6865 753.7315,373.0347 Q755.0514,371.3828 757.5582,371.3828 Q758.2638,371.3828 758.9112,371.5322 Q759.5587,371.6816 760.1231,371.9805 L760.1231,374.7031 Q759.4923,374.1221 758.8988,373.8523 Q758.3053,373.5825 757.6744,373.5825 Q756.3297,373.5825 755.6449,374.6492 Q754.9601,375.7158 754.9601,377.8159 Q754.9601,379.9077 755.6449,380.9744 Q756.3297,382.041 757.6744,382.041 Q758.3053,382.041 758.8988,381.7712 Q759.4923,381.5015 760.1231,380.9204 Z "/><text fill="#000000" font-family="sans-serif" font-size="12" lengthAdjust="spacingAndGlyphs" textLength="50" x="772.35" y="382.0352">CCTuner</text><line style="stroke: #A80036; stroke-width: 1.5;" x1="740.5" x2="827.5" y1="393.5" y2="393.5"/><line style="stroke: #A80036; stroke-width: 1.5;" x1="740.5" x2="827.5" y1="401.5" y2="401.5"/><ellipse cx="750.5" cy="412.5" fill="#84BE84" rx="3" ry="3" style="stroke: #038048; stroke-width: 1.0;"/><text fill="#000000" font-family="sans-serif" font-size="11" lengthAdjust="spacingAndGlyphs" textLength="63" x="759.5" y="416.1348">chooseCC()</text><!--class front.TransportTuner--><rect fill="#FEFECE" filter="url(#f1x6ds8l2ofqm)" height="60.9551" id="front.TransportTuner" style="stroke: #A80036; stroke-width: 1.5;" width="123" x="443.5" y="361.5"/><ellipse cx="458.5" cy="377.5" fill="#ADD1B2" rx="11" ry="11" style="stroke: #A80036; stroke-width: 1.0;"/><path d="M460.9731,383.6431 Q460.3921,383.9419 459.7529,384.0913 Q459.1138,384.2407 458.4082,384.2407 Q455.9014,384.2407 454.5815,382.5889 Q453.2617,380.937 453.2617,377.8159 Q453.2617,374.6865 454.5815,373.0347 Q455.9014,371.3828 458.4082,371.3828 Q459.1138,371.3828 459.7612,371.5322 Q460.4087,371.6816 460.9731,371.9805 L460.9731,374.7031 Q460.3423,374.1221 459.7488,373.8523 Q459.1553,373.5825 458.5244,373.5825 Q457.1797,373.5825 456.4949,374.6492 Q455.8101,375.7158 455.8101,377.8159 Q455.8101,379.9077 456.4949,380.9744 Q457.1797,382.041 458.5244,382.041 Q459.1553,382.041 459.7488,381.7712 Q460.3423,381.5015 460.9731,380.9204 Z "/><text fill="#000000" font-family="sans-serif" font-size="12" lengthAdjust="spacingAndGlyphs" textLength="91" x="472.5" y="382.0352">TransportTuner</text><line style="stroke: #A80036; stroke-width: 1.5;" x1="444.5" x2="565.5" y1="393.5" y2="393.5"/><line style="stroke: #A80036; stroke-width: 1.5;" x1="444.5" x2="565.5" y1="401.5" y2="401.5"/><ellipse cx="454.5" cy="412.5" fill="#84BE84" rx="3" ry="3" style="stroke: #038048; stroke-width: 1.0;"/><text fill="#000000" font-family="sans-serif" font-size="11" lengthAdjust="spacingAndGlyphs" textLength="77" x="463.5" y="416.1348">chooseTrace()</text><!--class front.ABRTuner--><rect fill="#FEFECE" filter="url(#f1x6ds8l2ofqm)" height="60.9551" id="front.ABRTuner" style="stroke: #A80036; stroke-width: 1.5;" width="94" x="314" y="361.5"/><ellipse cx="331.25" cy="377.5" fill="#ADD1B2" rx="11" ry="11" style="stroke: #A80036; stroke-width: 1.0;"/><path d="M333.7231,383.6431 Q333.1421,383.9419 332.5029,384.0913 Q331.8638,384.2407 331.1582,384.2407 Q328.6514,384.2407 327.3315,382.5889 Q326.0117,380.937 326.0117,377.8159 Q326.0117,374.6865 327.3315,373.0347 Q328.6514,371.3828 331.1582,371.3828 Q331.8638,371.3828 332.5112,371.5322 Q333.1587,371.6816 333.7231,371.9805 L333.7231,374.7031 Q333.0923,374.1221 332.4988,373.8523 Q331.9053,373.5825 331.2744,373.5825 Q329.9297,373.5825 329.2449,374.6492 Q328.5601,375.7158 328.5601,377.8159 Q328.5601,379.9077 329.2449,380.9744 Q329.9297,382.041 331.2744,382.041 Q331.9053,382.041 332.4988,381.7712 Q333.0923,381.5015 333.7231,380.9204 Z "/><text fill="#000000" font-family="sans-serif" font-size="12" lengthAdjust="spacingAndGlyphs" textLength="57" x="345.75" y="382.0352">ABRTuner</text><line style="stroke: #A80036; stroke-width: 1.5;" x1="315" x2="407" y1="393.5" y2="393.5"/><line style="stroke: #A80036; stroke-width: 1.5;" x1="315" x2="407" y1="401.5" y2="401.5"/><ellipse cx="325" cy="412.5" fill="#84BE84" rx="3" ry="3" style="stroke: #038048; stroke-width: 1.0;"/><text fill="#000000" font-family="sans-serif" font-size="11" lengthAdjust="spacingAndGlyphs" textLength="68" x="334" y="416.1348">chooseABR()</text><!--class back.VideoClient--><rect fill="#FEFECE" filter="url(#f1x6ds8l2ofqm)" height="73.9102" id="back.VideoClient" style="stroke: #A80036; stroke-width: 1.5;" width="133" x="81.5" y="355"/><ellipse cx="112.7" cy="371" fill="#ADD1B2" rx="11" ry="11" style="stroke: #A80036; stroke-width: 1.0;"/><path d="M115.1731,377.1431 Q114.5921,377.4419 113.9529,377.5913 Q113.3138,377.7407 112.6082,377.7407 Q110.1014,377.7407 108.7815,376.0889 Q107.4617,374.437 107.4617,371.3159 Q107.4617,368.1865 108.7815,366.5347 Q110.1014,364.8828 112.6082,364.8828 Q113.3138,364.8828 113.9612,365.0322 Q114.6087,365.1816 115.1731,365.4805 L115.1731,368.2031 Q114.5423,367.6221 113.9488,367.3523 Q113.3553,367.0825 112.7244,367.0825 Q111.3797,367.0825 110.6949,368.1492 Q110.0101,369.2158 110.0101,371.3159 Q110.0101,373.4077 110.6949,374.4744 Q111.3797,375.541 112.7244,375.541 Q113.3553,375.541 113.9488,375.2712 Q114.5423,375.0015 115.1731,374.4204 Z "/><text fill="#000000" font-family="sans-serif" font-size="12" lengthAdjust="spacingAndGlyphs" textLength="65" x="130.3" y="375.5352">VideoClient</text><line style="stroke: #A80036; stroke-width: 1.5;" x1="82.5" x2="213.5" y1="387" y2="387"/><line style="stroke: #A80036; stroke-width: 1.5;" x1="82.5" x2="213.5" y1="395" y2="395"/><ellipse cx="92.5" cy="406" fill="#84BE84" rx="3" ry="3" style="stroke: #038048; stroke-width: 1.0;"/><text fill="#000000" font-family="sans-serif" font-size="11" lengthAdjust="spacingAndGlyphs" textLength="106" x="101.5" y="409.6348">connectABRServer()</text><ellipse cx="92.5" cy="418.9551" fill="#84BE84" rx="3" ry="3" style="stroke: #038048; stroke-width: 1.0;"/><text fill="#000000" font-family="sans-serif" font-size="11" lengthAdjust="spacingAndGlyphs" textLength="107" x="101.5" y="422.5898">connectWebServer()</text><!--class back.ABRServer--><rect fill="#FEFECE" filter="url(#f1x6ds8l2ofqm)" height="60.9551" id="back.ABRServer" style="stroke: #A80036; stroke-width: 1.5;" width="91" x="38.5" y="489"/><ellipse cx="53.5" cy="505" fill="#ADD1B2" rx="11" ry="11" style="stroke: #A80036; stroke-width: 1.0;"/><path d="M55.9731,511.1431 Q55.3921,511.4419 54.7529,511.5913 Q54.1138,511.7407 53.4082,511.7407 Q50.9014,511.7407 49.5815,510.0889 Q48.2617,508.437 48.2617,505.3159 Q48.2617,502.1865 49.5815,500.5347 Q50.9014,498.8828 53.4082,498.8828 Q54.1138,498.8828 54.7612,499.0322 Q55.4087,499.1816 55.9731,499.4805 L55.9731,502.2031 Q55.3423,501.6221 54.7488,501.3523 Q54.1553,501.0825 53.5244,501.0825 Q52.1797,501.0825 51.4949,502.1492 Q50.8101,503.2158 50.8101,505.3159 Q50.8101,507.4077 51.4949,508.4744 Q52.1797,509.541 53.5244,509.541 Q54.1553,509.541 54.7488,509.2712 Q55.3423,509.0015 55.9731,508.4204 Z "/><text fill="#000000" font-family="sans-serif" font-size="12" lengthAdjust="spacingAndGlyphs" textLength="59" x="67.5" y="509.5352">ABRServer</text><line style="stroke: #A80036; stroke-width: 1.5;" x1="39.5" x2="128.5" y1="521" y2="521"/><line style="stroke: #A80036; stroke-width: 1.5;" x1="39.5" x2="128.5" y1="529" y2="529"/><ellipse cx="49.5" cy="540" fill="#84BE84" rx="3" ry="3" style="stroke: #038048; stroke-width: 1.0;"/><text fill="#000000" font-family="sans-serif" font-size="11" lengthAdjust="spacingAndGlyphs" textLength="37" x="58.5" y="543.6348">serve()</text><!--class back.WebServer--><rect fill="#FEFECE" filter="url(#f1x6ds8l2ofqm)" height="60.9551" id="back.WebServer" style="stroke: #A80036; stroke-width: 1.5;" width="93" x="164.5" y="489"/><ellipse cx="179.5" cy="505" fill="#ADD1B2" rx="11" ry="11" style="stroke: #A80036; stroke-width: 1.0;"/><path d="M181.9731,511.1431 Q181.3921,511.4419 180.7529,511.5913 Q180.1138,511.7407 179.4082,511.7407 Q176.9014,511.7407 175.5815,510.0889 Q174.2617,508.437 174.2617,505.3159 Q174.2617,502.1865 175.5815,500.5347 Q176.9014,498.8828 179.4082,498.8828 Q180.1138,498.8828 180.7612,499.0322 Q181.4087,499.1816 181.9731,499.4805 L181.9731,502.2031 Q181.3423,501.6221 180.7488,501.3523 Q180.1553,501.0825 179.5244,501.0825 Q178.1797,501.0825 177.4949,502.1492 Q176.8101,503.2158 176.8101,505.3159 Q176.8101,507.4077 177.4949,508.4744 Q178.1797,509.541 179.5244,509.541 Q180.1553,509.541 180.7488,509.2712 Q181.3423,509.0015 181.9731,508.4204 Z "/><text fill="#000000" font-family="sans-serif" font-size="12" lengthAdjust="spacingAndGlyphs" textLength="61" x="193.5" y="509.5352">WebServer</text><line style="stroke: #A80036; stroke-width: 1.5;" x1="165.5" x2="256.5" y1="521" y2="521"/><line style="stroke: #A80036; stroke-width: 1.5;" x1="165.5" x2="256.5" y1="529" y2="529"/><ellipse cx="175.5" cy="540" fill="#84BE84" rx="3" ry="3" style="stroke: #038048; stroke-width: 1.0;"/><text fill="#000000" font-family="sans-serif" font-size="11" lengthAdjust="spacingAndGlyphs" textLength="37" x="184.5" y="543.6348">serve()</text><!--class plotting.Algorithms--><rect fill="#FEFECE" filter="url(#f1x6ds8l2ofqm)" height="48" id="plotting.Algorithms" style="stroke: #A80036; stroke-width: 1.5;" width="93" x="1020.5" y="368"/><ellipse cx="1035.5" cy="384" fill="#ADD1B2" rx="11" ry="11" style="stroke: #A80036; stroke-width: 1.0;"/><path d="M1037.9731,390.1431 Q1037.3921,390.4419 1036.7529,390.5913 Q1036.1138,390.7407 1035.4082,390.7407 Q1032.9014,390.7407 1031.5815,389.0889 Q1030.2617,387.437 1030.2617,384.3159 Q1030.2617,381.1865 1031.5815,379.5347 Q1032.9014,377.8828 1035.4082,377.8828 Q1036.1138,377.8828 1036.7612,378.0322 Q1037.4087,378.1816 1037.9731,378.4805 L1037.9731,381.2031 Q1037.3423,380.6221 1036.7488,380.3523 Q1036.1553,380.0825 1035.5244,380.0825 Q1034.1797,380.0825 1033.4949,381.1492 Q1032.8101,382.2158 1032.8101,384.3159 Q1032.8101,386.4077 1033.4949,387.4744 Q1034.1797,388.541 1035.5244,388.541 Q1036.1553,388.541 1036.7488,388.2712 Q1037.3423,388.0015 1037.9731,387.4204 Z "/><text fill="#000000" font-family="sans-serif" font-size="12" lengthAdjust="spacingAndGlyphs" textLength="61" x="1049.5" y="388.5352">Algorithms</text><line style="stroke: #A80036; stroke-width: 1.5;" x1="1021.5" x2="1112.5" y1="400" y2="400"/><line style="stroke: #A80036; stroke-width: 1.5;" x1="1021.5" x2="1112.5" y1="408" y2="408"/><!--class plotting.RL--><rect fill="#FEFECE" filter="url(#f1x6ds8l2ofqm)" height="48" id="plotting.RL" style="stroke: #A80036; stroke-width: 1.5;" width="46" x="993" y="495.5"/><ellipse cx="1008" cy="511.5" fill="#ADD1B2" rx="11" ry="11" style="stroke: #A80036; stroke-width: 1.0;"/><path d="M1010.4731,517.6431 Q1009.8921,517.9419 1009.2529,518.0913 Q1008.6138,518.2407 1007.9082,518.2407 Q1005.4014,518.2407 1004.0815,516.5889 Q1002.7617,514.937 1002.7617,511.8159 Q1002.7617,508.6865 1004.0815,507.0347 Q1005.4014,505.3828 1007.9082,505.3828 Q1008.6138,505.3828 1009.2612,505.5322 Q1009.9087,505.6816 1010.4731,505.9805 L1010.4731,508.7031 Q1009.8423,508.1221 1009.2488,507.8523 Q1008.6553,507.5825 1008.0244,507.5825 Q1006.6797,507.5825 1005.9949,508.6492 Q1005.3101,509.7158 1005.3101,511.8159 Q1005.3101,513.9077 1005.9949,514.9744 Q1006.6797,516.041 1008.0244,516.041 Q1008.6553,516.041 1009.2488,515.7712 Q1009.8423,515.5015 1010.4731,514.9204 Z "/><text fill="#000000" font-family="sans-serif" font-size="12" lengthAdjust="spacingAndGlyphs" textLength="14" x="1022" y="516.0352">RL</text><line style="stroke: #A80036; stroke-width: 1.5;" x1="994" x2="1038" y1="527.5" y2="527.5"/><line style="stroke: #A80036; stroke-width: 1.5;" x1="994" x2="1038" y1="535.5" y2="535.5"/><!--class plotting.Mahimahi--><rect fill="#FEFECE" filter="url(#f1x6ds8l2ofqm)" height="48" id="plotting.Mahimahi" style="stroke: #A80036; stroke-width: 1.5;" width="87" x="1074.5" y="495.5"/><ellipse cx="1089.5" cy="511.5" fill="#ADD1B2" rx="11" ry="11" style="stroke: #A80036; stroke-width: 1.0;"/><path d="M1091.9731,517.6431 Q1091.3921,517.9419 1090.7529,518.0913 Q1090.1138,518.2407 1089.4082,518.2407 Q1086.9014,518.2407 1085.5815,516.5889 Q1084.2617,514.937 1084.2617,511.8159 Q1084.2617,508.6865 1085.5815,507.0347 Q1086.9014,505.3828 1089.4082,505.3828 Q1090.1138,505.3828 1090.7612,505.5322 Q1091.4087,505.6816 1091.9731,505.9805 L1091.9731,508.7031 Q1091.3423,508.1221 1090.7488,507.8523 Q1090.1553,507.5825 1089.5244,507.5825 Q1088.1797,507.5825 1087.4949,508.6492 Q1086.8101,509.7158 1086.8101,511.8159 Q1086.8101,513.9077 1087.4949,514.9744 Q1088.1797,516.041 1089.5244,516.041 Q1090.1553,516.041 1090.7488,515.7712 Q1091.3423,515.5015 1091.9731,514.9204 Z "/><text fill="#000000" font-family="sans-serif" font-size="12" lengthAdjust="spacingAndGlyphs" textLength="55" x="1103.5" y="516.0352">Mahimahi</text><line style="stroke: #A80036; stroke-width: 1.5;" x1="1075.5" x2="1160.5" y1="527.5" y2="527.5"/><line style="stroke: #A80036; stroke-width: 1.5;" x1="1075.5" x2="1160.5" y1="535.5" y2="535.5"/><!--class plotting.AgainstTraces--><rect fill="#FEFECE" filter="url(#f1x6ds8l2ofqm)" height="48" id="plotting.AgainstTraces" style="stroke: #A80036; stroke-width: 1.5;" width="113" x="1010.5" y="227.5"/><ellipse cx="1025.5" cy="243.5" fill="#ADD1B2" rx="11" ry="11" style="stroke: #A80036; stroke-width: 1.0;"/><path d="M1027.9731,249.6431 Q1027.3921,249.9419 1026.7529,250.0913 Q1026.1138,250.2407 1025.4082,250.2407 Q1022.9014,250.2407 1021.5815,248.5889 Q1020.2617,246.937 1020.2617,243.8159 Q1020.2617,240.6865 1021.5815,239.0347 Q1022.9014,237.3828 1025.4082,237.3828 Q1026.1138,237.3828 1026.7612,237.5322 Q1027.4087,237.6816 1027.9731,237.9805 L1027.9731,240.7031 Q1027.3423,240.1221 1026.7488,239.8523 Q1026.1553,239.5825 1025.5244,239.5825 Q1024.1797,239.5825 1023.4949,240.6492 Q1022.8101,241.7158 1022.8101,243.8159 Q1022.8101,245.9077 1023.4949,246.9744 Q1024.1797,248.041 1025.5244,248.041 Q1026.1553,248.041 1026.7488,247.7712 Q1027.3423,247.5015 1027.9731,246.9204 Z "/><text fill="#000000" font-family="sans-serif" font-size="12" lengthAdjust="spacingAndGlyphs" textLength="81" x="1039.5" y="248.0352">AgainstTraces</text><line style="stroke: #A80036; stroke-width: 1.5;" x1="1011.5" x2="1122.5" y1="259.5" y2="259.5"/><line style="stroke: #A80036; stroke-width: 1.5;" x1="1011.5" x2="1122.5" y1="267.5" y2="267.5"/><!--class plotting.AgainstCC--><rect fill="#FEFECE" filter="url(#f1x6ds8l2ofqm)" height="48" id="plotting.AgainstCC" style="stroke: #A80036; stroke-width: 1.5;" width="90" x="885" y="227.5"/><ellipse cx="900" cy="243.5" fill="#ADD1B2" rx="11" ry="11" style="stroke: #A80036; stroke-width: 1.0;"/><path d="M902.4731,249.6431 Q901.8921,249.9419 901.2529,250.0913 Q900.6138,250.2407 899.9082,250.2407 Q897.4014,250.2407 896.0815,248.5889 Q894.7617,246.937 894.7617,243.8159 Q894.7617,240.6865 896.0815,239.0347 Q897.4014,237.3828 899.9082,237.3828 Q900.6138,237.3828 901.2612,237.5322 Q901.9087,237.6816 902.4731,237.9805 L902.4731,240.7031 Q901.8423,240.1221 901.2488,239.8523 Q900.6553,239.5825 900.0244,239.5825 Q898.6797,239.5825 897.9949,240.6492 Q897.3101,241.7158 897.3101,243.8159 Q897.3101,245.9077 897.9949,246.9744 Q898.6797,248.041 900.0244,248.041 Q900.6553,248.041 901.2488,247.7712 Q901.8423,247.5015 902.4731,246.9204 Z "/><text fill="#000000" font-family="sans-serif" font-size="12" lengthAdjust="spacingAndGlyphs" textLength="58" x="914" y="248.0352">AgainstCC</text><line style="stroke: #A80036; stroke-width: 1.5;" x1="886" x2="974" y1="259.5" y2="259.5"/><line style="stroke: #A80036; stroke-width: 1.5;" x1="886" x2="974" y1="267.5" y2="267.5"/><!--class plotting.AgainstTransport--><rect fill="#FEFECE" filter="url(#f1x6ds8l2ofqm)" height="48" id="plotting.AgainstTransport" style="stroke: #A80036; stroke-width: 1.5;" width="131" x="1290.5" y="227.5"/><ellipse cx="1305.5" cy="243.5" fill="#ADD1B2" rx="11" ry="11" style="stroke: #A80036; stroke-width: 1.0;"/><path d="M1307.9731,249.6431 Q1307.3921,249.9419 1306.7529,250.0913 Q1306.1138,250.2407 1305.4082,250.2407 Q1302.9014,250.2407 1301.5815,248.5889 Q1300.2617,246.937 1300.2617,243.8159 Q1300.2617,240.6865 1301.5815,239.0347 Q1302.9014,237.3828 1305.4082,237.3828 Q1306.1138,237.3828 1306.7612,237.5322 Q1307.4087,237.6816 1307.9731,237.9805 L1307.9731,240.7031 Q1307.3423,240.1221 1306.7488,239.8523 Q1306.1553,239.5825 1305.5244,239.5825 Q1304.1797,239.5825 1303.4949,240.6492 Q1302.8101,241.7158 1302.8101,243.8159 Q1302.8101,245.9077 1303.4949,246.9744 Q1304.1797,248.041 1305.5244,248.041 Q1306.1553,248.041 1306.7488,247.7712 Q1307.3423,247.5015 1307.9731,246.9204 Z "/><text fill="#000000" font-family="sans-serif" font-size="12" lengthAdjust="spacingAndGlyphs" textLength="99" x="1319.5" y="248.0352">AgainstTransport</text><line style="stroke: #A80036; stroke-width: 1.5;" x1="1291.5" x2="1420.5" y1="259.5" y2="259.5"/><line style="stroke: #A80036; stroke-width: 1.5;" x1="1291.5" x2="1420.5" y1="267.5" y2="267.5"/><!--class plotting.AgainstABR--><rect fill="#FEFECE" filter="url(#f1x6ds8l2ofqm)" height="48" id="plotting.AgainstABR" style="stroke: #A80036; stroke-width: 1.5;" width="97" x="1158.5" y="227.5"/><ellipse cx="1173.5" cy="243.5" fill="#ADD1B2" rx="11" ry="11" style="stroke: #A80036; stroke-width: 1.0;"/><path d="M1175.9731,249.6431 Q1175.3921,249.9419 1174.7529,250.0913 Q1174.1138,250.2407 1173.4082,250.2407 Q1170.9014,250.2407 1169.5815,248.5889 Q1168.2617,246.937 1168.2617,243.8159 Q1168.2617,240.6865 1169.5815,239.0347 Q1170.9014,237.3828 1173.4082,237.3828 Q1174.1138,237.3828 1174.7612,237.5322 Q1175.4087,237.6816 1175.9731,237.9805 L1175.9731,240.7031 Q1175.3423,240.1221 1174.7488,239.8523 Q1174.1553,239.5825 1173.5244,239.5825 Q1172.1797,239.5825 1171.4949,240.6492 Q1170.8101,241.7158 1170.8101,243.8159 Q1170.8101,245.9077 1171.4949,246.9744 Q1172.1797,248.041 1173.5244,248.041 Q1174.1553,248.041 1174.7488,247.7712 Q1175.3423,247.5015 1175.9731,246.9204 Z "/><text fill="#000000" font-family="sans-serif" font-size="12" lengthAdjust="spacingAndGlyphs" textLength="65" x="1187.5" y="248.0352">AgainstABR</text><line style="stroke: #A80036; stroke-width: 1.5;" x1="1159.5" x2="1254.5" y1="259.5" y2="259.5"/><line style="stroke: #A80036; stroke-width: 1.5;" x1="1159.5" x2="1254.5" y1="267.5" y2="267.5"/><!--class simulation.Simulator--><rect fill="#FEFECE" filter="url(#f1x6ds8l2ofqm)" height="73.9102" id="simulation.Simulator" style="stroke: #A80036; stroke-width: 1.5;" width="85" x="610.5" y="59"/><ellipse cx="625.5" cy="75" fill="#ADD1B2" rx="11" ry="11" style="stroke: #A80036; stroke-width: 1.0;"/><path d="M627.9731,81.1431 Q627.3921,81.4419 626.7529,81.5913 Q626.1138,81.7407 625.4082,81.7407 Q622.9014,81.7407 621.5815,80.0889 Q620.2617,78.437 620.2617,75.3159 Q620.2617,72.1865 621.5815,70.5347 Q622.9014,68.8828 625.4082,68.8828 Q626.1138,68.8828 626.7612,69.0322 Q627.4087,69.1816 627.9731,69.4805 L627.9731,72.2031 Q627.3423,71.6221 626.7488,71.3523 Q626.1553,71.0825 625.5244,71.0825 Q624.1797,71.0825 623.4949,72.1492 Q622.8101,73.2158 622.8101,75.3159 Q622.8101,77.4077 623.4949,78.4744 Q624.1797,79.541 625.5244,79.541 Q626.1553,79.541 626.7488,79.2712 Q627.3423,79.0015 627.9731,78.4204 Z "/><text fill="#000000" font-family="sans-serif" font-size="12" lengthAdjust="spacingAndGlyphs" textLength="53" x="639.5" y="79.5352">Simulator</text><line style="stroke: #A80036; stroke-width: 1.5;" x1="611.5" x2="694.5" y1="91" y2="91"/><line style="stroke: #A80036; stroke-width: 1.5;" x1="611.5" x2="694.5" y1="99" y2="99"/><ellipse cx="621.5" cy="110" fill="#84BE84" rx="3" ry="3" style="stroke: #038048; stroke-width: 1.0;"/><text fill="#000000" font-family="sans-serif" font-size="11" lengthAdjust="spacingAndGlyphs" textLength="59" x="630.5" y="113.6348">calcTrace()</text><ellipse cx="621.5" cy="122.9551" fill="#84BE84" rx="3" ry="3" style="stroke: #038048; stroke-width: 1.0;"/><text fill="#000000" font-family="sans-serif" font-size="11" lengthAdjust="spacingAndGlyphs" textLength="44" x="630.5" y="126.5898">logRes()</text><!--reverse link front.Window to front.TraceTuner--><path d="M653,308.41 C653,326.55 653,345.96 653,361.4 " fill="none" id="front.Window&lt;-front.TraceTuner" style="stroke: #A80036; stroke-width: 1.0;"/><polygon fill="#A80036" points="653,295.18,649,301.18,653,307.18,657,301.18,653,295.18" style="stroke: #A80036; stroke-width: 1.0;"/><!--reverse link front.Window to front.CCTuner--><path d="M714.46,304.38 C717.05,306.91 719.57,309.46 722,312 C736.69,327.38 751.46,346.05 762.9,361.37 " fill="none" id="front.Window&lt;-front.CCTuner" style="stroke: #A80036; stroke-width: 1.0;"/><polygon fill="#A80036" points="704.89,295.3,706.4906,302.3312,713.5966,303.5581,711.996,296.5268,704.89,295.3" style="stroke: #A80036; stroke-width: 1.0;"/><!--reverse link front.Window to front.TransportTuner--><path d="M592.52,304.19 C589.63,306.81 586.77,309.43 584,312 C566.95,327.84 548.52,346.19 533.76,361.21 " fill="none" id="front.Window&lt;-front.TransportTuner" style="stroke: #A80036; stroke-width: 1.0;"/><polygon fill="#A80036" points="602.5,295.3,595.3601,296.3109,593.5471,303.2904,600.687,302.2795,602.5,295.3" style="stroke: #A80036; stroke-width: 1.0;"/><!--reverse link front.Window to front.ABRTuner--><path d="M579.36,260.02 C532.5,267.53 472.17,282.45 426,312 C406.55,324.45 390.09,344.62 378.61,361.47 " fill="none" id="front.Window&lt;-front.ABRTuner" style="stroke: #A80036; stroke-width: 1.0;"/><polygon fill="#A80036" points="592.51,258.05,585.9825,254.9854,580.6431,259.832,587.1705,262.8967,592.51,258.05" style="stroke: #A80036; stroke-width: 1.0;"/><!--link back.VideoClient to back.ABRServer--><path d="M129.49,429.3 C119.89,448.12 108.31,470.83 99.24,488.62 " fill="none" id="back.VideoClient-back.ABRServer" style="stroke: #A80036; stroke-width: 1.0;"/><!--link back.VideoClient to back.WebServer--><path d="M166.22,429.3 C175.67,448.12 187.07,470.83 196,488.62 " fill="none" id="back.VideoClient-back.WebServer" style="stroke: #A80036; stroke-width: 1.0;"/><!--link front.CCTuner to back.WebServer--><path d="M756.49,422.68 C746.5,431.74 734.56,440.8 722,446.5 C639.39,483.98 367.74,507.22 257.8,515.29 " fill="none" id="front.CCTuner-back.WebServer" style="stroke: #A80036; stroke-width: 1.0;"/><!--link front.TraceTuner to back.WebServer--><path d="M621.37,422.54 C610.27,431.47 597.26,440.5 584,446.5 C473.9,496.34 330.3,511.72 257.57,516.44 " fill="none" id="front.TraceTuner-back.WebServer" style="stroke: #A80036; stroke-width: 1.0;"/><!--link front.TransportTuner to back.WebServer--><path d="M465.69,422.7 C453.4,431.13 439.51,439.82 426,446.5 C370.6,473.89 302.29,494.77 257.74,506.81 " fill="none" id="front.TransportTuner-back.WebServer" style="stroke: #A80036; stroke-width: 1.0;"/><!--link front.ABRTuner to back.ABRServer--><path d="M317.38,422.51 C303.84,430.93 288.62,439.67 274,446.5 C220.08,471.7 202.27,466.9 147,489 C141.39,491.24 135.57,493.73 129.84,496.29 " fill="none" id="front.ABRTuner-back.ABRServer" style="stroke: #A80036; stroke-width: 1.0;"/><!--link plotting.Algorithms to plotting.RL--><path d="M1057.65,416.02 C1048.5,438.52 1034.65,472.6 1025.47,495.2 " fill="none" id="plotting.Algorithms-plotting.RL" style="stroke: #A80036; stroke-width: 1.0;"/><!--link plotting.Algorithms to plotting.Mahimahi--><path d="M1076.35,416.02 C1085.5,438.52 1099.35,472.6 1108.53,495.2 " fill="none" id="plotting.Algorithms-plotting.Mahimahi" style="stroke: #A80036; stroke-width: 1.0;"/><!--link plotting.AgainstTraces to plotting.Algorithms--><path d="M1067,275.68 C1067,295.26 1067,323.82 1067,347.62 " fill="none" id="plotting.AgainstTraces-&gt;plotting.Algorithms" style="stroke: #A80036; stroke-width: 1.0;"/><polygon fill="none" points="1074,347.74,1067,367.74,1060,347.74,1074,347.74" style="stroke: #A80036; stroke-width: 1.0;"/><!--link plotting.AgainstCC to plotting.Algorithms--><path d="M952.93,275.68 C973.87,296.85 1005.22,328.54 1029.75,353.34 " fill="none" id="plotting.AgainstCC-&gt;plotting.Algorithms" style="stroke: #A80036; stroke-width: 1.0;"/><polygon fill="none" points="1034.91,348.6,1043.99,367.74,1024.95,358.45,1034.91,348.6" style="stroke: #A80036; stroke-width: 1.0;"/><!--link plotting.AgainstTransport to plotting.Algorithms--><path d="M1311.79,275.52 C1299.29,281.92 1285.65,288.81 1273,295 C1226.18,317.89 1172.84,342.71 1132.16,361.38 " fill="none" id="plotting.AgainstTransport-&gt;plotting.Algorithms" style="stroke: #A80036; stroke-width: 1.0;"/><polygon fill="none" points="1134.97,367.8,1113.87,369.76,1129.14,355.07,1134.97,367.8" style="stroke: #A80036; stroke-width: 1.0;"/><!--link plotting.AgainstABR to plotting.Algorithms--><path d="M1183.57,275.68 C1162.17,296.85 1130.14,328.54 1105.06,353.34 " fill="none" id="plotting.AgainstABR-&gt;plotting.Algorithms" style="stroke: #A80036; stroke-width: 1.0;"/><polygon fill="none" points="1109.65,358.65,1090.51,367.74,1099.8,348.7,1109.65,358.65" style="stroke: #A80036; stroke-width: 1.0;"/><!--link front.Window to plotting.Algorithms--><path d="M713.31,270.49 C751.23,281.98 801.13,297.4 845,312 C905.94,332.28 975.63,357.4 1020.42,373.79 " fill="none" id="front.Window-plotting.Algorithms" style="stroke: #A80036; stroke-width: 1.0;"/><!--link simulation.Simulator to front.Window--><path d="M653,133.38 C653,155.72 653,184.44 653,207.85 " fill="none" id="simulation.Simulator-front.Window" style="stroke: #A80036; stroke-width: 1.0;"/><!--
@startuml
front.Window *- - front.TraceTuner
front.Window *- - front.CCTuner
front.Window *- - front.TransportTuner
front.Window *- - front.ABRTuner

back.VideoClient - - back.ABRServer
back.VideoClient - - back.WebServer
front.CCTuner - - back.WebServer
front.TraceTuner - - back.WebServer
front.TransportTuner - - back.WebServer
front.ABRTuner - - back.ABRServer

plotting.Algorithms - - plotting.RL
plotting.Algorithms - - plotting.Mahimahi
plotting.AgainstTraces - -|> plotting.Algorithms
plotting.AgainstCC - -|> plotting.Algorithms
plotting.AgainstTransport - -|> plotting.Algorithms
plotting.AgainstABR - -|> plotting.Algorithms
front.Window - - plotting.Algorithms

simulation.Simulator - - front.Window

class front.Window {
    +startExperiment()
    +startSimulation()
    +startPlotting()
}
class front.TraceTuner {
    +chooseTrace()
}
class front.CCTuner {
    +chooseCC()
}
class front.TransportTuner {
    +chooseTrace()
}
class front.ABRTuner {
    +chooseABR()
}


class simulation.Simulator {
    +calcTrace()
    +logRes()
}

class back.VideoClient {
    +connectABRServer()
    +connectWebServer()
}
class back.ABRServer {
    +serve()
}
class back.WebServer {
    +serve()
}
@enduml

PlantUML version 1.2019.09(Tue Aug 27 00:19:51 CST 2019)
(GPL source distribution)
Java Runtime: Java(TM) SE Runtime Environment
JVM: Java HotSpot(TM) 64-Bit Server VM
Java Version: 13.0.1+9
Operating System: Mac OS X
OS Version: 10.15.2
Default Encoding: UTF-8
Language: en
Country: HK
--></g></svg>